<?xml version="1.0" encoding="UTF-8"?>
<svg id="Layer_2" data-name="Layer 2" xmlns="http://www.w3.org/2000/svg" viewBox="0 0 386.41 118.52">
  <defs>
    <style>
      .cls-1 {
        fill: #3b8677;
      }

      .cls-2 {
        fill: none;
        stroke: #ff8a00;
        stroke-miterlimit: 10;
        stroke-width: 11.5px;
      }

      .cls-3 {
        fill: #67c28d;
      }
    </style>
  </defs>
  <g id="Layer_1-2" data-name="Layer 1">
    <g id="Layer_2-2" data-name="Layer 2">
      <path class="cls-2" d="M209.5,36.57c7.84-18.15,25.65-30.82,46.38-30.82,20.67,0,38.45,12.61,46.32,30.68"/>
      <path class="cls-1" d="M213.23,117.86v-28.32h-11.44v28.32h11.44Z"/>
      <path class="cls-3" d="M315.84,117.83v-28.32h-11.44v28.32h11.44Z"/>
      <path class="cls-1" d="M100.57,67.02c-8.62-2.17-16.46-.3-23.27,5.45-4.8,4.06-7.73,9.28-8.66,15.48-1.18,7.79.78,14.8,5.9,20.83,3.78,4.46,8.58,7.3,14.29,8.48,7.03,1.49,13.78.05,19.78-3.89l11.37,4.38v-25.64c-.01-11.9-7.88-22.2-19.4-25.09ZM94.17,104c-6.67,0-12.03-5.33-12.03-12,0-6.64,5.33-12,11.97-12,6.65,0,12.02,5.33,12.03,11.94,0,6.68-5.33,12.05-11.97,12.06Z"/>
      <path class="cls-3" d="M283.73,66.22c0-14.41,11.68-26.09,26.09-26.09s26.09,11.68,26.09,26.09-11.68,26.09-26.09,26.09-26.09-11.68-26.09-26.09ZM310.12,53.69c-6.63,0-12,5.37-12,12s5.37,12,12,12,12-5.37,12-12-5.37-12-12-12Z"/>
      <path class="cls-1" d="M181.42,66.27c0-14.41,11.68-26.09,26.09-26.09s26.09,11.68,26.09,26.09-11.68,26.09-26.09,26.09-26.09-11.68-26.09-26.09ZM207.51,54.27c-6.63,0-12,5.37-12,12s5.37,12,12,12,12-5.37,12-12-5.37-12-12-12Z"/>
      <path class="cls-3" d="M334.23,91.77c0-14.41,11.68-26.09,26.09-26.09s26.09,11.68,26.09,26.09-11.68,26.09-26.09,26.09-26.09-11.68-26.09-26.09ZM360.3,79.78c-6.63,0-12,5.37-12,12s5.37,12,12,12,12-5.37,12-12-5.37-12-12-12Z"/>
      <path class="cls-3" d="M386.39,92.15v-51.72h-11.44v51.72h11.44Z"/>
      <path class="cls-1" d="M124.61,92.43c0-14.41,11.68-26.09,26.09-26.09s26.09,11.68,26.09,26.09-11.68,26.09-26.09,26.09-26.09-11.68-26.09-26.09ZM150.68,80.43c-6.63,0-12,5.37-12,12s5.37,12,12,12,12-5.37,12-12-5.37-12-12-12Z"/>
      <path class="cls-1" d="M176.77,92.81v-52.68h-11.44v52.68h11.44Z"/>
      <g>
        <path class="cls-3" d="M248.96,117.83V40.13h-11.44v77.7h11.44Z"/>
        <path class="cls-3" d="M249.04,117.85c12.54-24.49,24.52-47.9,37.07-72.42-3.45-1.77-6.86-3.51-10.25-5.25-12.56,24.53-24.55,47.96-37.07,72.42l10.25,5.25Z"/>
        <path class="cls-3" d="M255.59,105.06c8.33,4.26,16.3,8.33,24.64,12.59,1.76-3.45,3.51-6.86,5.24-10.26-8.35-4.27-16.32-8.34-24.64-12.59l-5.24,10.26Z"/>
      </g>
    </g>
    <g>
      <path class="cls-1" d="M17.6,92.97c.23-.03.46-.05.7-.09,2.7-.37,5.03-1.82,6.58-3.89-.23.03-.46.05-.7.09-2.7.37-5.03,1.82-6.58,3.89Z"/>
      <path class="cls-1" d="M46.19,117.83c.6,0,1.19,0,1.78,0v-6.07l-1.78,3.75v2.33Z"/>
      <path class="cls-1" d="M39.37,89.08c-.24-.03-.46-.06-.7-.09,1.55,2.06,3.88,3.52,6.58,3.89.24.03.46.06.7.09-1.55-2.06-3.88-3.52-6.58-3.89Z"/>
      <path class="cls-1" d="M15.59,117.84c.58,0,1.17,0,1.78,0v-2.33l-1.78-3.75v6.08Z"/>
      <path class="cls-1" d="M49.26,39.98v32.69H14.29v-32.68c-7.39,0-13,0-14.29,0v77.85c1.38,0,6.96,0,14.29,0v-6.08l-3.56.98-.54-1.4,4.1-2.29v-10.09c0-5.63,4.15-10.41,9.72-11.17,2.6-.35,5.35-.62,7.76-.62s5.16.27,7.76.62c5.57.76,9.72,5.55,9.72,11.17v10.09l4.1,2.29-.54,1.4-3.56-.98v6.07c7.52,0,13.17,0,14.29,0V39.98c-1.39,0-6.97,0-14.29,0Z"/>
    </g>
  </g>
</svg>