<svg width="24" height="24" viewBox="0 0 24 24" fill="none" xmlns="http://www.w3.org/2000/svg">
<g clip-path="url(#clip0_1413_4975)">
<path fill-rule="evenodd" clip-rule="evenodd" d="M19.0714 4.28571C19.0714 4.28571 18.4324 3 17.1429 3H6.85714C5.57143 3 4.96344 4.28571 4.96344 4.28571L1.71428 12V17.1429H22.2857V12L19.0714 4.28571ZM6.85714 4.28571C6.37814 4.28571 6.08841 4.82812 6.08841 4.82812L3.64286 10.7143H20.3571L17.9143 4.77816C17.9143 4.77816 17.662 4.28571 17.1429 4.28571H6.85714ZM4.28571 21C5.70587 21 6.85714 19.8487 6.85714 18.4286H1.71428C1.71428 19.8487 2.86555 21 4.28571 21ZM19.7143 21C21.1344 21 22.2857 19.8487 22.2857 18.4286H17.1429C17.1429 19.8487 18.2941 21 19.7143 21ZM4.92857 15.8571C5.99369 15.8571 6.85714 14.9937 6.85714 13.9286C6.85714 12.8635 5.99369 12 4.92857 12C3.86345 12 3 12.8635 3 13.9286C3 14.9937 3.86345 15.8571 4.92857 15.8571ZM19.0714 15.8571C20.1365 15.8571 21 14.9937 21 13.9286C21 12.8635 20.1365 12 19.0714 12C18.0063 12 17.1429 12.8635 17.1429 13.9286C17.1429 14.9937 18.0063 15.8571 19.0714 15.8571ZM1.71428 17.7857V18.4286H22.2857V17.7857H1.71428Z" fill="#66B2A3"/>
</g>
<defs>
<clipPath id="clip0_1413_4975">
<rect width="20.5714" height="18" fill="white" transform="translate(1.71428 3)"/>
</clipPath>
</defs>
</svg>
