<svg width="186" height="181" viewBox="0 0 186 181" fill="none" xmlns="http://www.w3.org/2000/svg">
<circle cx="95.5002" cy="91" r="70.5" fill="#3B8677"/>
<circle cx="178.467" cy="28" r="7.5" fill="#66B2A3"/>
<circle cx="20.0334" cy="10.5" r="10" fill="#66B2A3"/>
<circle cx="10.0334" cy="133.5" r="5" fill="#66B2A3"/>
<circle cx="165.533" cy="161" r="2.5" fill="#66B2A3"/>
<path fill-rule="evenodd" clip-rule="evenodd" d="M84.8548 66.4164H106.169C114.502 66.4164 120.083 72.2673 120.083 80.9698V101.057C120.083 109.732 114.502 115.583 106.169 115.583H84.8548C76.521 115.583 70.916 109.732 70.916 101.057V80.9698C70.916 72.2673 76.521 66.4164 84.8548 66.4164ZM94.098 98.3502L105.775 86.6731C106.611 85.8373 106.611 84.4852 105.775 83.6248C104.939 82.7889 103.563 82.7889 102.727 83.6248L92.5738 93.7777L88.2717 89.4756C87.4359 88.6398 86.0592 88.6398 85.2234 89.4756C84.3875 90.3114 84.3875 91.6635 85.2234 92.5239L91.0742 98.3502C91.4921 98.7681 92.033 98.9648 92.5738 98.9648C93.1392 98.9648 93.68 98.7681 94.098 98.3502Z" fill="#FCFCFC"/>
<circle cx="106.533" cy="5" r="2.5" fill="#66B2A3"/>
<circle cx="62.5334" cy="177" r="3.5" fill="#66B2A3"/>
<circle cx="122.033" cy="171.5" r="1" fill="#66B2A3"/>
<circle cx="170.533" cy="111" r="2.5" fill="#66B2A3"/>
<circle cx="1.03345" cy="75.5" r="1" fill="#66B2A3"/>
</svg>
