<svg width="20" height="20" viewBox="0 0 20 20" fill="none" xmlns="http://www.w3.org/2000/svg">
<path d="M2.5 5H4.16667H17.5" stroke="#F53838" stroke-width="1.66667" stroke-linecap="round" stroke-linejoin="round"/>
<path d="M15.8333 4.99996V16.6666C15.8333 17.1087 15.6577 17.5326 15.3451 17.8451C15.0326 18.1577 14.6087 18.3333 14.1666 18.3333H5.83329C5.39127 18.3333 4.96734 18.1577 4.65478 17.8451C4.34222 17.5326 4.16663 17.1087 4.16663 16.6666V4.99996M6.66663 4.99996V3.33329C6.66663 2.89127 6.84222 2.46734 7.15478 2.15478C7.46734 1.84222 7.89127 1.66663 8.33329 1.66663H11.6666C12.1087 1.66663 12.5326 1.84222 12.8451 2.15478C13.1577 2.46734 13.3333 2.89127 13.3333 3.33329V4.99996" stroke="#F53838" stroke-width="1.66667" stroke-linecap="round" stroke-linejoin="round"/>
<path d="M8.33337 9.16663V14.1666" stroke="#F53838" stroke-width="1.66667" stroke-linecap="round" stroke-linejoin="round"/>
<path d="M11.6666 9.16663V14.1666" stroke="#F53838" stroke-width="1.66667" stroke-linecap="round" stroke-linejoin="round"/>
</svg>
