<svg width="24" height="24" viewBox="0 0 24 24" fill="none" xmlns="http://www.w3.org/2000/svg">
<path d="M15.2528 7.59395C15.2528 5.80032 13.794 4.34082 12 4.34082C10.206 4.34082 8.74725 5.80032 8.74725 7.59395C8.74725 9.38757 10.206 10.8467 12 10.8467C13.794 10.8467 15.2528 9.38757 15.2528 7.59395ZM9.49725 7.59395C9.49725 6.21357 10.62 5.09082 12 5.09082C13.38 5.09082 14.5028 6.21357 14.5028 7.59395C14.5028 8.97395 13.38 10.0967 12 10.0967C10.62 10.0967 9.49725 8.97395 9.49725 7.59395Z" fill="#FCFCFC"/>
<path d="M19.0815 11.5256C19.0673 11.4377 19.0223 11.3576 18.9545 11.2998C18.8867 11.242 18.8005 11.2103 18.7114 11.2103H15.6338C16.2908 10.032 16.7813 8.76263 16.7813 7.59375C16.7813 4.9575 14.6363 2.8125 12 2.8125C9.36377 2.8125 7.21877 4.9575 7.21877 7.59375C7.21877 8.76263 7.70927 10.032 8.36627 11.2103H5.28864C5.19954 11.2103 5.11336 11.242 5.04553 11.2998C4.97771 11.3576 4.93268 11.4377 4.91852 11.5256L4.32789 15.2006C4.3223 15.2183 4.31804 15.2363 4.31514 15.2546L4.04252 16.9699C4.03716 16.9872 4.03302 17.0049 4.03014 17.0228L3.43089 20.7518C3.42225 20.8054 3.42536 20.8602 3.44002 20.9125C3.45467 20.9648 3.48051 21.0132 3.51575 21.0545C3.55099 21.0958 3.59479 21.129 3.64411 21.1517C3.69343 21.1744 3.7471 21.1861 3.80139 21.186H20.1986C20.253 21.186 20.3067 21.1742 20.356 21.1514C20.4053 21.1286 20.4491 21.0954 20.4843 21.054C20.5195 21.0127 20.5454 20.9641 20.56 20.9118C20.5747 20.8595 20.5778 20.8046 20.5691 20.751L19.0815 11.5256ZM18.7163 13.9721L19.4276 18.3844L16.4276 15.5959L18.7163 13.9721ZM18.3919 11.9603L18.5831 13.1471L15.8663 15.0746L14.1338 13.464C14.5073 12.9787 14.8589 12.477 15.1875 11.9603H18.3919ZM7.96877 7.59375C7.96877 5.37075 9.77739 3.5625 12 3.5625C14.2226 3.5625 16.0313 5.37075 16.0313 7.59375C16.0313 9.45113 14.568 11.6963 13.3493 13.2435L13.347 13.245L13.3444 13.2499C12.9178 13.791 12.4693 14.3144 12 14.8189C11.0629 13.8158 7.96877 10.2971 7.96877 7.59375ZM5.60814 11.9603H8.81252C9.14037 12.4757 9.4911 12.9762 9.86364 13.4603L5.15364 14.793L5.60814 11.9603ZM4.24127 20.436L4.73252 17.3798L9.22427 16.1122L7.76177 20.436H4.24127ZM8.55377 20.436L10.1625 15.678C10.1844 15.6133 10.1882 15.5438 10.1735 15.4771C10.1589 15.4104 10.1262 15.349 10.0792 15.2995C10.0321 15.2499 9.97244 15.2142 9.90657 15.1961C9.84069 15.1781 9.77113 15.1783 9.70539 15.1969L4.86639 16.5619L5.01752 15.6105L10.368 14.0966C10.6609 14.4539 10.9635 14.803 11.2755 15.1436L9.48527 20.436H8.55377ZM10.2776 20.436L11.8751 15.7118C11.915 15.7272 11.9573 15.7357 12 15.7369C12.0995 15.7369 12.1948 15.6973 12.2651 15.627C12.2925 15.5993 12.4136 15.477 12.5974 15.2805L18.1406 20.436H10.2776ZM19.242 20.436L13.1003 14.7236C13.2731 14.5264 13.464 14.3014 13.6665 14.0539L19.6215 19.5889L19.7584 20.436H19.242Z" fill="#FCFCFC"/>
</svg>
